<svg width="25" height="24" viewBox="0 0 25 24" fill="none" xmlns="http://www.w3.org/2000/svg">
<path d="M12.7519 11.8652C13.2494 11.8652 13.6747 11.6881 14.0279 11.3338C14.3812 10.9794 14.5579 10.5535 14.5579 10.056C14.5579 9.5585 14.3807 9.13308 14.0264 8.77975C13.6721 8.42658 13.2461 8.25 12.7484 8.25C12.2509 8.25 11.8256 8.42717 11.4724 8.7815C11.1191 9.13583 10.9424 9.56183 10.9424 10.0595C10.9424 10.557 11.1196 10.9823 11.4739 11.3355C11.8282 11.6887 12.2542 11.8652 12.7519 11.8652ZM12.7501 19.5135C14.7065 17.7622 16.2036 16.0823 17.2414 14.474C18.2792 12.8657 18.7981 11.457 18.7981 10.248C18.7981 8.425 18.219 6.92633 17.0606 5.752C15.9023 4.57767 14.4655 3.9905 12.7501 3.9905C11.0348 3.9905 9.59798 4.57767 8.43965 5.752C7.28131 6.92633 6.70215 8.425 6.70215 10.248C6.70215 11.457 7.22107 12.8657 8.2589 14.474C9.29673 16.0823 10.7938 17.7622 12.7501 19.5135ZM12.7501 21.5095C10.2335 19.3288 8.34631 17.2994 7.08865 15.4212C5.83098 13.5429 5.20215 11.8185 5.20215 10.248C5.20215 7.94033 5.94856 6.07208 7.4414 4.64325C8.9344 3.21442 10.704 2.5 12.7501 2.5C14.7963 2.5 16.5659 3.21442 18.0589 4.64325C19.5517 6.07208 20.2981 7.94033 20.2981 10.248C20.2981 11.8185 19.6693 13.5429 18.4116 15.4212C17.154 17.2994 15.2668 19.3288 12.7501 21.5095Z" fill="#171C8F"/>
</svg>
