<svg width="38" height="38" viewBox="0 0 38 38" fill="none" xmlns="http://www.w3.org/2000/svg">
<path d="M18.8151 38C16.2183 38 13.7775 37.5013 11.4926 36.504C9.20767 35.5067 7.2202 34.1532 5.53015 32.4435C3.84011 30.7338 2.50201 28.7233 1.51585 26.412C0.530024 24.1007 0.0371094 21.6312 0.0371094 19.0035C0.0371094 16.3755 0.52986 13.9053 1.51536 11.593C2.50086 9.28067 3.8383 7.26933 5.52768 5.559C7.21707 3.84867 9.20371 2.4945 11.4876 1.4965C13.7715 0.498833 16.2117 0 18.8082 0C21.405 0 23.8459 0.498666 26.1308 1.496C28.4157 2.49333 30.4032 3.84683 32.0932 5.5565C33.7833 7.26617 35.1214 9.27667 36.1075 11.588C37.0933 13.8993 37.5863 16.3688 37.5863 18.9965C37.5863 21.6245 37.0935 24.0947 36.108 26.407C35.1225 28.7193 33.7851 30.7307 32.0957 32.441C30.4063 34.1513 28.4197 35.5055 26.1357 36.5035C23.8518 37.5012 21.4116 38 18.8151 38ZM17.3295 34.8385V27.877C15.4672 27.4897 13.8824 26.6345 12.5751 25.3115C11.2678 23.9885 10.4227 22.3847 10.04 20.5H3.1611C3.48027 24.3257 4.97647 27.5693 7.64971 30.231C10.3226 32.8923 13.5492 34.4282 17.3295 34.8385ZM20.2939 34.8385C24.0742 34.4898 27.3008 32.9693 29.9737 30.277C32.6469 27.5847 34.1431 24.3257 34.4623 20.5H27.5834C27.2006 22.3847 26.3556 23.9885 25.0483 25.3115C23.741 26.6345 22.1562 27.4897 20.2939 27.877V34.8385ZM3.1611 17.5H9.91846L15.2771 12H22.3462L27.7049 17.5H34.4623C34.0822 13.364 32.3972 9.91333 29.4075 7.148C26.4177 4.38267 22.8858 3 18.8117 3C14.7376 3 11.2057 4.38267 8.21591 7.148C5.22614 9.91333 3.5412 13.364 3.1611 17.5Z" fill="#398BD7"/>
</svg>
