<svg width="52" height="52" viewBox="0 0 52 52" fill="none" xmlns="http://www.w3.org/2000/svg">
<mask id="mask0_1874_2320" style="mask-type:alpha" maskUnits="userSpaceOnUse" x="0" y="0" width="52" height="52">
<rect width="52" height="52" fill="#D9D9D9"/>
</mask>
<g mask="url(#mask0_1874_2320)">
<path d="M12.1651 40.0831V42.7915C12.1651 43.2519 12.0094 43.6377 11.6982 43.949C11.3865 44.2607 11.0005 44.4165 10.5401 44.4165H9.20703C8.74661 44.4165 8.36077 44.2607 8.04949 43.949C7.73785 43.6377 7.58203 43.2519 7.58203 42.7915V26.1666L12.0069 13.5415C12.1683 13.0442 12.4643 12.6492 12.8947 12.3563C13.3251 12.0631 13.8043 11.9165 14.3323 11.9165H37.7485C38.2555 11.9165 38.7159 12.0654 39.1298 12.3633C39.5433 12.6613 39.8302 13.054 39.9905 13.5415L44.4154 26.1666V42.7915C44.4154 43.2519 44.2595 43.6377 43.9479 43.949C43.6366 44.2607 43.2508 44.4165 42.7904 44.4165H41.4573C40.9969 44.4165 40.6109 44.2607 40.2992 43.949C39.988 43.6377 39.8323 43.2519 39.8323 42.7915V40.0831H12.1651ZM12.1488 22.9166H39.8486L37.1153 15.1665H14.8821L12.1488 22.9166ZM16.1702 34.3334C16.9585 34.3334 17.6271 34.0573 18.1759 33.5051C18.7245 32.9534 18.9987 32.2833 18.9987 31.495C18.9987 30.7067 18.7228 30.0381 18.1711 29.4892C17.6189 28.9407 16.9487 28.6664 16.1604 28.6664C15.3721 28.6664 14.7037 28.9423 14.1552 29.4941C13.6063 30.0462 13.3318 30.7165 13.3318 31.5048C13.3318 32.2931 13.6079 32.9615 14.16 33.51C14.7118 34.0589 15.3818 34.3334 16.1702 34.3334ZM35.837 34.3334C36.6253 34.3334 37.2937 34.0573 37.8422 33.5051C38.3911 32.9534 38.6656 32.2833 38.6656 31.495C38.6656 30.7067 38.3895 30.0381 37.8374 29.4892C37.2856 28.9407 36.6155 28.6664 35.8272 28.6664C35.0389 28.6664 34.3703 28.9423 33.8214 29.4941C33.2729 30.0462 32.9987 30.7165 32.9987 31.5048C32.9987 32.2931 33.2745 32.9615 33.8263 33.51C34.3785 34.0589 35.0487 34.3334 35.837 34.3334ZM10.832 36.8331H41.1654V26.1666H10.832V36.8331Z" fill="#FE8E50"/>
</g>
</svg>
