<svg width="44" height="35" viewBox="0 0 44 35" fill="none" xmlns="http://www.w3.org/2000/svg">
<path d="M21.7709 28.0324C22.2465 28.0324 22.6447 27.8665 22.9656 27.5347C23.2869 27.2034 23.4475 26.7924 23.4475 26.3019C23.4475 25.8114 23.2867 25.4007 22.965 25.0697C22.6434 24.7383 22.245 24.5727 21.7697 24.5727C21.2942 24.5727 20.8959 24.7385 20.575 25.0703C20.2537 25.402 20.0931 25.8132 20.0931 26.3037C20.0931 26.7938 20.2539 27.2045 20.5756 27.5359C20.8972 27.8669 21.2956 28.0324 21.7709 28.0324ZM21.7709 19.0285C22.2465 19.0285 22.6447 18.8626 22.9656 18.5308C23.2869 18.1991 23.4475 17.7881 23.4475 17.298C23.4475 16.8075 23.2867 16.3968 22.965 16.0658C22.6434 15.7344 22.245 15.5687 21.7697 15.5687C21.2942 15.5687 20.8959 15.7346 20.575 16.0664C20.2537 16.3981 20.0931 16.809 20.0931 17.2992C20.0931 17.7897 20.2539 18.2004 20.5756 18.5314C20.8972 18.8628 21.2956 19.0285 21.7709 19.0285ZM21.7709 10.0245C22.2465 10.0245 22.6447 9.85866 22.9656 9.52691C23.2869 9.19516 23.4475 8.78404 23.4475 8.29352C23.4475 7.8034 23.2867 7.39265 22.965 7.06129C22.6434 6.73031 22.245 6.56482 21.7697 6.56482C21.2942 6.56482 20.8959 6.73069 20.575 7.06244C20.2537 7.3938 20.0931 7.80474 20.0931 8.29525C20.0931 8.78576 20.2539 9.19651 20.5756 9.52749C20.8972 9.85885 21.2956 10.0245 21.7709 10.0245ZM38.9725 34.5972H4.56807C3.45626 34.5972 2.50452 34.1889 1.71287 33.3725C0.921217 32.556 0.525391 31.5744 0.525391 30.4277V22.8434C1.79859 22.592 2.86233 21.9479 3.7166 20.9111C4.57087 19.8747 4.998 18.6706 4.998 17.2986C4.998 15.9266 4.57087 14.7224 3.7166 13.6861C2.86233 12.6493 1.79859 12.0052 0.525391 11.7538V4.16954C0.525391 3.02283 0.921217 2.04123 1.71287 1.22474C2.50452 0.408246 3.45626 0 4.56807 0H38.9725C40.0844 0 41.0361 0.408246 41.8277 1.22474C42.6194 2.04123 43.0152 3.02283 43.0152 4.16954V11.7538C41.742 12.0052 40.6783 12.6493 39.824 13.6861C38.9697 14.7224 38.5426 15.9266 38.5426 17.2986C38.5426 18.6706 38.9697 19.8747 39.824 20.9111C40.6783 21.9479 41.742 22.592 43.0152 22.8434V30.4277C43.0152 31.5744 42.6194 32.556 41.8277 33.3725C41.0361 34.1889 40.0844 34.5972 38.9725 34.5972ZM38.9725 31.1375C39.1734 31.1375 39.3384 31.071 39.4673 30.938C39.5963 30.805 39.6608 30.6349 39.6608 30.4277V25.2559C38.2817 24.4102 37.1915 23.2858 36.3902 21.8827C35.5888 20.4796 35.1881 18.9516 35.1881 17.2986C35.1881 15.6456 35.5888 14.1176 36.3902 12.7145C37.1915 11.3114 38.2817 10.187 39.6608 9.34124V4.16954C39.6608 3.96234 39.5963 3.79224 39.4673 3.65923C39.3384 3.52622 39.1734 3.45972 38.9725 3.45972H4.56807C4.36718 3.45972 4.20225 3.52622 4.07329 3.65923C3.94433 3.79224 3.87985 3.96234 3.87985 4.16954V9.34124C5.25891 10.187 6.34911 11.3114 7.15045 12.7145C7.95179 14.1176 8.35246 15.6456 8.35246 17.2986C8.35246 18.9516 7.95179 20.4796 7.15045 21.8827C6.34911 23.2858 5.25891 24.4102 3.87985 25.2559V30.4277C3.87985 30.6349 3.94433 30.805 4.07329 30.938C4.20225 31.071 4.36718 31.1375 4.56807 31.1375H38.9725Z" fill="#00BCA4"/>
</svg>
