<svg width="41" height="42" viewBox="0 0 41 42" fill="none" xmlns="http://www.w3.org/2000/svg">
<path d="M20.5612 40.1515C30.7917 40.1515 39.0852 31.611 39.0852 21.0757C39.0852 10.5405 30.7917 2 20.5612 2C10.3306 2 2.03711 10.5405 2.03711 21.0757C2.03711 31.611 10.3306 40.1515 20.5612 40.1515Z" stroke="#C563B1" stroke-width="2.4875"/>
<path d="M20.5607 32.5205C26.6991 32.5205 31.6752 27.3962 31.6752 21.0751C31.6752 14.7539 26.6991 9.62964 20.5607 9.62964C14.4224 9.62964 9.44629 14.7539 9.44629 21.0751C9.44629 27.3962 14.4224 32.5205 20.5607 32.5205Z" stroke="#C563B1" stroke-width="2.4875"/>
<path d="M20.5603 24.892C22.6064 24.892 24.2651 23.1839 24.2651 21.0769C24.2651 18.9698 22.6064 17.2617 20.5603 17.2617C18.5142 17.2617 16.8555 18.9698 16.8555 21.0769C16.8555 23.1839 18.5142 24.892 20.5603 24.892Z" stroke="#C563B1" stroke-width="2.4875"/>
<path d="M9.44629 21.0758H16.8559M24.2655 21.0758H31.6752M15.0035 30.9876L18.7083 24.3797M22.4131 17.7719L26.1179 11.1641M26.1179 30.9876L22.4131 24.3797M18.7083 17.7719L15.0035 11.1641" stroke="#C563B1" stroke-width="2.4875" stroke-linecap="round"/>
</svg>
