<svg width="14" height="14" viewBox="0 0 14 14" fill="none" xmlns="http://www.w3.org/2000/svg">
<g id="content_copy_24dp_FILL0_wght300_GRAD0_opsz24 5">
<path id="Vector" d="M5.28369 10.208C4.98901 10.208 4.73958 10.1059 4.53542 9.90176C4.33125 9.69759 4.22917 9.44817 4.22917 9.15349V2.51253C4.22917 2.21785 4.33125 1.96842 4.53542 1.76426C4.73958 1.56009 4.98901 1.45801 5.28369 1.45801H10.1746C10.4693 1.45801 10.7188 1.56009 10.9229 1.76426C11.1271 1.96842 11.2292 2.21785 11.2292 2.51253V9.15349C11.2292 9.44817 11.1271 9.69759 10.9229 9.90176C10.7188 10.1059 10.4693 10.208 10.1746 10.208H5.28369ZM5.28369 9.33301H10.1746C10.2196 9.33301 10.2607 9.31429 10.298 9.27686C10.3355 9.23953 10.3542 9.1984 10.3542 9.15349V2.51253C10.3542 2.46761 10.3355 2.42649 10.298 2.38915C10.2607 2.35172 10.2196 2.33301 10.1746 2.33301H5.28369C5.23877 2.33301 5.19765 2.35172 5.16031 2.38915C5.12288 2.42649 5.10417 2.46761 5.10417 2.51253V9.15349C5.10417 9.1984 5.12288 9.23953 5.16031 9.27686C5.19765 9.31429 5.23877 9.33301 5.28369 9.33301ZM3.24202 12.2497C2.94734 12.2497 2.69792 12.1476 2.49375 11.9434C2.28958 11.7393 2.1875 11.4898 2.1875 11.1952V3.6792H3.0625V11.1952C3.0625 11.2401 3.08122 11.2812 3.11865 11.3185C3.15598 11.356 3.1971 11.3747 3.24202 11.3747H9.00798V12.2497H3.24202Z" fill="#171D9B"/>
</g>
</svg>
