<svg width="16" height="16" viewBox="0 0 16 16" fill="none" xmlns="http://www.w3.org/2000/svg">
<g id="location_on">
<mask id="mask0_2113_5513" style="mask-type:alpha" maskUnits="userSpaceOnUse" x="0" y="0" width="16" height="16">
<rect id="Bounding box" width="16" height="16" fill="#D9D9D9"/>
</mask>
<g mask="url(#mask0_2113_5513)">
<path id="location_on_2" d="M8.00192 7.91013C8.33358 7.91013 8.61714 7.79202 8.85258 7.55579C9.08814 7.31957 9.20592 7.03563 9.20592 6.70396C9.20592 6.37229 9.0878 6.08868 8.85158 5.85313C8.61536 5.61768 8.33136 5.49996 7.99958 5.49996C7.66792 5.49996 7.38436 5.61807 7.14892 5.85429C6.91336 6.09052 6.79558 6.37452 6.79558 6.70629C6.79558 7.03796 6.91369 7.32152 7.14992 7.55696C7.38614 7.7924 7.67014 7.91013 8.00192 7.91013ZM8.00075 13.009C9.30497 11.8414 10.303 10.7215 10.9949 9.64929C11.6868 8.57707 12.0327 7.63796 12.0327 6.83196C12.0327 5.61663 11.6466 4.61752 10.8744 3.83463C10.1022 3.05174 9.14431 2.66029 8.00075 2.66029C6.85719 2.66029 5.89931 3.05174 5.12708 3.83463C4.35486 4.61752 3.96875 5.61663 3.96875 6.83196C3.96875 7.63796 4.31469 8.57707 5.00658 9.64929C5.69847 10.7215 6.69653 11.8414 8.00075 13.009ZM8.00075 14.3396C6.32297 12.8858 5.06486 11.5329 4.22642 10.2808C3.38797 9.02857 2.96875 7.87896 2.96875 6.83196C2.96875 5.29351 3.46636 4.04801 4.46158 3.09546C5.45692 2.1429 6.63664 1.66663 8.00075 1.66663C9.36486 1.66663 10.5446 2.1429 11.5399 3.09546C12.5351 4.04801 13.0327 5.29351 13.0327 6.83196C13.0327 7.87896 12.6135 9.02857 11.7751 10.2808C10.9366 11.5329 9.67853 12.8858 8.00075 14.3396Z" fill="black"/>
</g>
</g>
</svg>
