<svg width="36" height="36" viewBox="0 0 36 36" fill="none" xmlns="http://www.w3.org/2000/svg">
<g id="location">
<path id="Vector" d="M18.0024 17.7979C18.7486 17.7979 19.3866 17.5321 19.9164 17.0006C20.4464 16.4691 20.7114 15.8302 20.7114 15.084C20.7114 14.3378 20.4456 13.6996 19.9141 13.1696C19.3826 12.6399 18.7436 12.375 17.9971 12.375C17.2509 12.375 16.6129 12.6408 16.0831 13.1723C15.5531 13.7038 15.2881 14.3428 15.2881 15.0893C15.2881 15.8355 15.5539 16.4735 16.0854 17.0033C16.6169 17.533 17.2559 17.7979 18.0024 17.7979ZM17.9997 29.2703C20.9342 26.6432 23.1799 24.1235 24.7366 21.711C26.2934 19.2985 27.0717 17.1855 27.0717 15.372C27.0717 12.6375 26.203 10.3895 24.4655 8.628C22.728 6.8665 20.5727 5.98575 17.9997 5.98575C15.4267 5.98575 13.2715 6.8665 11.534 8.628C9.79648 10.3895 8.92773 12.6375 8.92773 15.372C8.92773 17.1855 9.70611 19.2985 11.2629 21.711C12.8196 24.1235 15.0652 26.6432 17.9997 29.2703ZM17.9997 32.2643C14.2247 28.9933 11.394 25.9491 9.50748 23.1319C7.62098 20.3144 6.67773 17.7277 6.67773 15.372C6.67773 11.9105 7.79736 9.10812 10.0366 6.96487C12.2761 4.82162 14.9305 3.75 17.9997 3.75C21.069 3.75 23.7234 4.82162 25.9629 6.96487C28.2021 9.10812 29.3217 11.9105 29.3217 15.372C29.3217 17.7277 28.3785 20.3144 26.492 23.1319C24.6055 25.9491 21.7747 28.9933 17.9997 32.2643Z" fill="white"/>
</g>
</svg>
