<svg width="14" height="14" viewBox="0 0 14 14" fill="none" xmlns="http://www.w3.org/2000/svg">
<g id="mail_24dp_FILL0_wght300_GRAD0_opsz24">
<path id="Vector" d="M2.51351 11.375C2.21882 11.375 1.9694 11.2729 1.76523 11.0688C1.56107 10.8646 1.45898 10.6152 1.45898 10.3205V3.67952C1.45898 3.38484 1.56107 3.13542 1.76523 2.93125C1.9694 2.72708 2.21882 2.625 2.51351 2.625H11.4878C11.7825 2.625 12.0319 2.72708 12.2361 2.93125C12.4402 3.13542 12.5423 3.38484 12.5423 3.67952V10.3205C12.5423 10.6152 12.4402 10.8646 12.2361 11.0688C12.0319 11.2729 11.7825 11.375 11.4878 11.375H2.51351ZM7.00065 7.32535L2.33398 4.34131V10.3205C2.33398 10.3729 2.3508 10.4159 2.38444 10.4495C2.41808 10.4832 2.4611 10.5 2.51351 10.5H11.4878C11.5402 10.5 11.5832 10.4832 11.6169 10.4495C11.6505 10.4159 11.6673 10.3729 11.6673 10.3205V4.34131L7.00065 7.32535ZM7.00065 6.41667L11.5776 3.5H2.42367L7.00065 6.41667ZM2.33398 4.34131V3.5V10.3205C2.33398 10.3729 2.3508 10.4159 2.38444 10.4495C2.41808 10.4832 2.4611 10.5 2.51351 10.5H2.33398V4.34131Z" fill="#939393"/>
</g>
</svg>
