<svg width="14" height="14" viewBox="0 0 14 14" fill="none" xmlns="http://www.w3.org/2000/svg">
<g id="phone">
<path id="Vector" d="M11.1056 6.84261C11.072 5.72378 10.6646 4.77382 9.8834 3.99274C9.10222 3.21156 8.15226 2.80415 7.03352 2.77051V1.89551C7.71408 1.91048 8.35123 2.04995 8.94496 2.3139C9.5388 2.57796 10.0575 2.9317 10.501 3.37513C10.9444 3.81866 11.2981 4.33729 11.5621 4.93103C11.8261 5.52486 11.9657 6.16206 11.9806 6.84261H11.1056ZM8.7723 6.84261C8.73866 6.37517 8.55729 5.97597 8.22819 5.64503C7.89909 5.31418 7.50087 5.13379 7.03352 5.10384V4.22884C7.74325 4.25879 8.34787 4.52445 8.8474 5.02582C9.34703 5.52729 9.61366 6.13289 9.6473 6.84261H8.7723ZM11.34 11.958C10.2407 11.958 9.1363 11.7024 8.0268 11.1912C6.91739 10.68 5.89714 9.95892 4.96605 9.02792C4.03874 8.09683 3.31949 7.07745 2.8083 5.9698C2.2971 4.86224 2.0415 3.75882 2.0415 2.65953C2.0415 2.48453 2.09984 2.33772 2.2165 2.21911C2.33317 2.1006 2.479 2.04134 2.654 2.04134H4.55655C4.70384 2.04134 4.83378 2.08942 4.94636 2.18557C5.05894 2.28163 5.13055 2.40033 5.16117 2.5417L5.49557 4.25801C5.51871 4.41726 5.51384 4.5541 5.48098 4.66853C5.44802 4.78296 5.38891 4.87906 5.30365 4.95684L3.95644 6.26832C4.17325 6.66538 4.42097 7.04099 4.69961 7.39517C4.97815 7.74926 5.27973 8.08745 5.60436 8.40974C5.92441 8.72989 6.26469 9.0272 6.62519 9.30165C6.98569 9.57611 7.37497 9.83151 7.79303 10.0679L9.10203 8.74749C9.19332 8.6525 9.30386 8.5859 9.43365 8.5477C9.56334 8.50958 9.69814 8.50025 9.83805 8.5197L11.4578 8.84957C11.6051 8.88846 11.7253 8.96361 11.8185 9.07503C11.9116 9.18645 11.9582 9.31283 11.9582 9.4542V11.3455C11.9582 11.5205 11.8989 11.6663 11.7804 11.783C11.6618 11.8997 11.515 11.958 11.34 11.958ZM3.54242 5.44042L4.58352 4.44424C4.60219 4.42927 4.61434 4.4087 4.61998 4.38255C4.62562 4.3564 4.6247 4.33209 4.61721 4.30963L4.36361 3.00603C4.35612 2.97618 4.34305 2.95377 4.32438 2.9388C4.30571 2.92383 4.28141 2.91634 4.25146 2.91634H3.004C2.98155 2.91634 2.96283 2.92383 2.94786 2.9388C2.93298 2.95377 2.92555 2.97249 2.92555 2.99495C2.95539 3.39356 3.02063 3.79849 3.12125 4.20974C3.22178 4.62108 3.36217 5.03131 3.54242 5.44042ZM8.61742 10.4817C9.00407 10.662 9.40735 10.7998 9.82725 10.8952C10.2473 10.9905 10.6397 11.0471 11.0046 11.0651C11.027 11.0651 11.0457 11.0576 11.0607 11.0426C11.0757 11.0276 11.0832 11.0089 11.0832 10.9865V9.75928C11.0832 9.72933 11.0757 9.70503 11.0607 9.68636C11.0457 9.6677 11.0233 9.65462 10.9935 9.64713L9.76848 9.39805C9.74603 9.39056 9.72639 9.38964 9.70957 9.39528C9.69275 9.40092 9.67496 9.41307 9.65619 9.43174L8.61742 10.4817Z" fill="#939393"/>
</g>
</svg>
