<svg width="72" height="72" viewBox="0 0 72 72" fill="none" xmlns="http://www.w3.org/2000/svg">
<g id="verified_24dp_FILL0_wght300_GRAD0_opsz24 1">
<path id="Vector" d="M26.4304 65.5899L21.0769 56.5674L10.9114 54.3399L11.9036 43.8752L5.01562 35.9942L11.9036 28.1132L10.9114 17.6484L21.0769 15.4209L26.4304 6.39844L35.9959 10.4597L45.5614 6.39844L50.9149 15.4209L61.0804 17.6484L60.0881 28.1132L66.9761 35.9942L60.0881 43.8752L61.0804 54.3399L50.9149 56.5674L45.5614 65.5899L35.9959 61.5287L26.4304 65.5899ZM28.3459 59.8442L35.9959 56.6019L43.7381 59.8442L47.9959 52.6442L56.2459 50.7519L55.4959 42.2942L61.0459 35.9942L55.4959 29.6019L56.2459 21.1442L47.9959 19.3442L43.6459 12.1442L35.9959 15.3864L28.2536 12.1442L23.9959 19.3442L15.7459 21.1442L16.4959 29.6019L10.9459 35.9942L16.4959 42.2942L15.7459 50.8442L23.9959 52.6442L28.3459 59.8442ZM32.8459 45.6054L48.7571 29.6942L45.5959 26.4407L32.8459 39.1907L26.3959 32.8329L23.2346 35.9942L32.8459 45.6054Z" fill="#2F9900"/>
</g>
</svg>
